<svg width="25" height="25" viewBox="0 0 25 25" fill="none" xmlns="http://www.w3.org/2000/svg">
<g clip-path="url(#clip0_1_1339)">
<g clip-path="url(#clip1_1_1339)">
<g clip-path="url(#clip2_1_1339)">
<mask id="mask0_1_1339" style="mask-type:luminance" maskUnits="userSpaceOnUse" x="0" y="0" width="25" height="25">
<path d="M24.13 0.100098H0.130005V24.1001H24.13V0.100098Z" fill="white"/>
</mask>
<g mask="url(#mask0_1_1339)">
<mask id="mask1_1_1339" style="mask-type:luminance" maskUnits="userSpaceOnUse" x="1" y="0" width="24" height="25">
<path d="M24.13 0.100098H1.13V24.1001H24.13V0.100098Z" fill="white"/>
</mask>
<g mask="url(#mask1_1_1339)">
<path d="M12.63 2.26217C15.7008 2.26217 16.0642 2.27455 17.2771 2.33219C18.3983 2.38554 19.0072 2.58084 19.4126 2.74518C19.9127 2.93733 20.3651 3.24417 20.7364 3.64308C21.1187 4.03055 21.4128 4.50261 21.5969 5.02447C21.7544 5.44746 21.9416 6.0829 21.9927 7.2528C22.0479 8.51844 22.0598 8.89761 22.0598 12.102C22.0598 15.3063 22.0479 15.6855 21.9927 16.9511C21.9416 18.121 21.7544 18.7565 21.5969 19.1794C21.4054 19.6968 21.1123 20.1667 20.7364 20.5589C20.3606 20.9511 19.9103 21.257 19.4144 21.4568C19.009 21.6212 18.4001 21.8165 17.2789 21.8698C16.0665 21.9275 15.7027 21.9398 12.6318 21.9398C9.56099 21.9398 9.19716 21.9275 7.98471 21.8698C6.86356 21.8165 6.25461 21.6212 5.84924 21.4568C5.34912 21.2647 4.89672 20.9578 4.5254 20.5589C4.14312 20.1715 3.84906 19.6994 3.66491 19.1775C3.50742 18.7545 3.32027 18.1191 3.26913 16.9492C3.21391 15.6836 3.20203 15.3044 3.20203 12.1001C3.20203 8.8957 3.21391 8.51653 3.26913 7.25089C3.32027 6.081 3.50742 5.44556 3.66491 5.02257C3.84906 4.50071 4.14312 4.02864 4.5254 3.64118C4.89672 3.24227 5.34912 2.93542 5.84924 2.74327C6.25461 2.57893 6.86356 2.38363 7.98471 2.33028C9.19763 2.27265 9.56099 2.26026 12.6318 2.26026L12.63 2.26217ZM12.6318 0.0981445C9.50849 0.0981445 9.11683 0.111958 7.89022 0.170548C6.66362 0.229139 5.82825 0.433489 5.09786 0.729774C4.33031 1.03127 3.63491 1.50364 3.06006 2.11402C2.47511 2.71387 2.02242 3.43949 1.73349 4.24041C1.44955 5.00256 1.25508 5.87617 1.19939 7.15324C1.14369 8.43032 1.13 8.84092 1.13 12.1001C1.13 15.3592 1.14324 15.7679 1.19939 17.0478C1.25554 18.3277 1.44955 19.1975 1.73349 19.9597C2.02254 20.7603 2.47522 21.4856 3.06006 22.0851C3.63471 22.6959 4.33016 23.1684 5.09786 23.4699C5.82825 23.7666 6.66545 23.9695 7.88931 24.0276C9.11317 24.0858 9.50759 24.1001 12.6309 24.1001C15.7542 24.1001 16.1459 24.0862 17.3725 24.0276C18.5991 23.9691 19.4318 23.7666 20.1621 23.4699C20.9264 23.1617 21.6204 22.6903 22.1997 22.0858C22.779 21.4813 23.2308 20.7571 23.5261 19.9597C23.8104 19.1975 24.0049 18.3239 24.0606 17.0469C24.1163 15.7698 24.13 15.3582 24.13 12.0991C24.13 8.83997 24.1168 8.43127 24.0606 7.15134C24.0045 5.87141 23.8104 5.00256 23.5261 4.24041C23.2373 3.43976 22.7848 2.71444 22.1999 2.11498C21.6252 1.50425 20.9298 1.03155 20.1621 0.729774C19.4318 0.433489 18.5945 0.230568 17.3707 0.172454C16.1468 0.11434 15.7533 0.10005 12.63 0.10005L12.6318 0.0981445Z" fill="white"/>
<path d="M12.629 5.93799C11.461 5.93799 10.3193 6.29938 9.3482 6.97647C8.3771 7.65355 7.62021 8.61592 7.17326 9.74187C6.72631 10.8678 6.60937 12.1068 6.83722 13.3021C7.06507 14.4974 7.62749 15.5953 8.45335 16.4571C9.27921 17.3189 10.3314 17.9057 11.4769 18.1435C12.6224 18.3813 13.8098 18.2592 14.8888 17.7929C15.9678 17.3265 16.8901 16.5367 17.539 15.5233C18.1878 14.51 18.5342 13.3187 18.5342 12.0999C18.5342 11.2907 18.3815 10.4894 18.0848 9.74179C17.788 8.99416 17.3531 8.31485 16.8047 7.74265C16.2563 7.17044 15.6053 6.71656 14.8889 6.40691C14.1724 6.09727 13.4045 5.93793 12.629 5.93799ZM12.629 16.1012C11.8706 16.1012 11.1292 15.8665 10.4986 15.4269C9.86801 14.9872 9.37653 14.3623 9.0863 13.6312C8.79607 12.9 8.72013 12.0955 8.86809 11.3193C9.01605 10.5432 9.38125 9.83021 9.91752 9.27062C10.4538 8.71103 11.137 8.32995 11.8809 8.17556C12.6247 8.02117 13.3957 8.10041 14.0964 8.40325C14.7971 8.7061 15.3959 9.21895 15.8173 9.87696C16.2386 10.535 16.4635 11.3086 16.4635 12.0999C16.4635 13.1611 16.0595 14.1789 15.3404 14.9293C14.6213 15.6797 13.6459 16.1012 12.629 16.1012Z" fill="white"/>
<path d="M18.7678 7.13435C19.5299 7.13435 20.1478 6.48965 20.1478 5.69437C20.1478 4.89909 19.5299 4.25439 18.7678 4.25439C18.0057 4.25439 17.3878 4.89909 17.3878 5.69437C17.3878 6.48965 18.0057 7.13435 18.7678 7.13435Z" fill="white"/>
</g>
</g>
</g>
</g>
</g>
<defs>
<clipPath id="clip0_1_1339">
<rect width="24" height="24" fill="white" transform="translate(0.130005 0.100098)"/>
</clipPath>
<clipPath id="clip1_1_1339">
<rect width="24" height="24" fill="white" transform="translate(0.130005 0.100098)"/>
</clipPath>
<clipPath id="clip2_1_1339">
<rect width="24" height="24" fill="white" transform="translate(0.130005 0.100098)"/>
</clipPath>
</defs>
</svg>
